PathFileType	4	(X/Y/Z)	C:/Users/opensim2020/Desktop/walking_exp_matlab/subject02_walking13_straight_01.trc																																																																																																																									
DataRate	CameraRate	NumFrames	NumMarkers	Units	OrigDataRate	OrigDataStartFrame	OrigNumFrames																																																																																																																					
100	100	4	41	mm	100	491	140																																																																																																																					
Frame#	Time	LFHD			RFHD			LBHD			RBHD			C7			T10			CLAV			STRN			RBAK			LSHO			LUPA			LELB			LFRM			LWRA			LWRB			LFIN			RSHO			RUPA			RELB			RFRM			RWRA			RWRB			RFIN			LASI			RASI			LPSI			RPSI			LTHI			LKNE			LTIB			LANK			LHEE			LTOE			RTHI			RKNE			RTIB			RANK			RHEE			RTOE			*39			*40		
		X1	Y1	Z1	X2	Y2	Z2	X3	Y3	Z3	X4	Y4	Z4	X5	Y5	Z5	X6	Y6	Z6	X7	Y7	Z7	X8	Y8	Z8	X9	Y9	Z9	X10	Y10	Z10	X11	Y11	Z11	X12	Y12	Z12	X13	Y13	Z13	X14	Y14	Z14	X15	Y15	Z15	X16	Y16	Z16	X17	Y17	Z17	X18	Y18	Z18	X19	Y19	Z19	X20	Y20	Z20	X21	Y21	Z21	X22	Y22	Z22	X23	Y23	Z23	X24	Y24	Z24	X25	Y25	Z25	X26	Y26	Z26	X27	Y27	Z27	X28	Y28	Z28	X29	Y29	Z29	X30	Y30	Z30	X31	Y31	Z31	X32	Y32	Z32	X33	Y33	Z33	X34	Y34	Z34	X35	Y35	Z35	X36	Y36	Z36	X37	Y37	Z37	X38	Y38	Z38	X39	Y39	Z39	X40	Y40	Z40	X41	Y41	Z41
																																																																																																																												
88	0.87	185.9203	1737.37976	-1071.94983	152.53362	1714.2843	-931.90912	60.91912	1663.1615	-1113.0603	16.06974	1639.02185	-978.60846	-14.03169	1517.91968	-1039.61572	-53.58669	1238.03967	-1029.1333	126.59341	1453.29395	-1049.64771	186.33804	1284.94885	-1044.93799	-64.17528	1338.42798	-976.4483	58.42566	1495.01746	-1218.99854	70.82689	1299.40002	-1308.54004	99.75867	1160.70081	-1333.83154	178.21393	1051.03259	-1345.21338	295.7659	982.69366	-1315.94348	255.35185	954.61084	-1343.93372	308.46585	915.73254	-1349.297	62.82843	1482.89526	-852.72668	27.80205	1295.82629	-769.68787	29.21252	1148.34143	-756.55884	49.96803	1028.83435	-739.0249	89.20894	899.83795	-761.62939	43.57019	899.13342	-727.16168	77.29482	834.53442	-726.44128	168.26736	976.1333	-1176.67639	202.03682	980.78217	-922.28021	-28.27428	1024.02759	-1070.55542	-20.26545	1027.91492	-955.10388	124.18198	663.25128	-1229.36487	107.88946	480.1116	-1213.21252	-47.33791	385.29416	-1190.71497	-193.03847	220.42622	-1153.96643	-220.72253	217.07851	-1092.20435	-130.68796	84.0404	-1199.11011	182.6609	671.48175	-860.1723	208.11206	467.19321	-918.49219	175.25493	279.91699	-916.68488	150.18439	91.75179	-962.95483	109.82612	39.85037	-1019.21783	300.52985	42.16865	-962.97833	65.51704	1799.71326	-1005.49194	2845.36987	1034.28247	-3360.49976
89	0.88	198.9881	1740.04102	-1071.2467	165.38577	1716.96985	-931.37354	74.11024	1666.16333	-1112.91931	28.96019	1641.62512	-978.4187	-0.86288	1520.86267	-1039.30615	-40.77338	1240.98755	-1028.59216	139.63194	1456.16614	-1049.84302	199.72636	1287.74011	-1045.25586	-51.12217	1341.41821	-975.79077	70.54695	1498.20276	-1219.03735	80.45976	1301.59058	-1307.56653	106.52673	1161.8833	-1331.23608	180.73558	1049.29797	-1343.51184	295.77484	976.3548	-1315.1261	253.95012	950.10742	-1343.01123	305.30402	908.53607	-1348.10339	76.33344	1486.12109	-852.92664	44.1896	1299.229	-768.60895	46.61943	1151.80859	-754.68762	69.84894	1032.8916	-737.42786	112.32574	904.64832	-760.23822	66.34481	902.69189	-725.79706	102.11713	839.43805	-725.03436	179.82727	980.27448	-1177.47803	213.40793	982.85638	-921.3645	-15.95747	1027.17114	-1069.58142	-7.88414	1030.64832	-954.36707	143.96608	667.21393	-1229.1842	132.72852	484.07404	-1212.16724	-19.60185	385.46396	-1189.85938	-160.98431	216.0681	-1154.54968	-189.69128	211.26447	-1093.41028	-91.93365	83.09165	-1199.21692	188.40884	672.24591	-859.59546	210.13199	466.95242	-917.66559	175.77174	279.96475	-916.27228	150.08124	91.83237	-962.85791	109.75449	39.61375	-1019.31885	300.00195	42.50112	-962.47742	78.56655	1802.54333	-1005.17438	2845.94971	1034.18542	-3357.31934
90	0.89	212.06447	1742.62915	-1070.87793	178.05785	1719.22205	-930.93243	87.24081	1668.91956	-1112.98865	41.53162	1644.08679	-978.88257	12.28272	1523.50842	-1039.06604	-27.93451	1243.70154	-1027.96423	152.68915	1458.74207	-1049.99219	212.60927	1290.24756	-1045.60132	-38.16953	1344.21912	-975.16357	82.53022	1500.82556	-1218.96106	90.0681	1303.71375	-1307.00391	113.31069	1163.24524	-1329.11304	182.74254	1047.96216	-1341.82117	295.34525	970.07361	-1314.5199	252.15781	945.75024	-1342.02014	301.39316	901.54108	-1347.00403	89.78077	1489.29895	-853.09265	60.11186	1302.78113	-767.52747	64.03815	1155.22351	-752.73199	90.27764	1036.65576	-735.84961	135.21535	909.79938	-758.80341	89.75718	906.51587	-724.36652	127.33468	844.21936	-723.48047	191.71013	984.28271	-1177.7406	224.64375	984.61212	-920.37476	-3.60521	1030.07202	-1068.82166	4.34826	1033.27405	-953.64563	163.276	671.20984	-1229.17163	157.26089	487.54617	-1211.07312	8.02869	384.62442	-1189.59363	-128.05754	210.30441	-1155.15771	-157.73439	204.42445	-1094.44006	-52.35908	81.28095	-1199.22046	194.28337	672.78656	-859.56042	211.7551	466.84927	-917.00708	176.06714	280.06482	-916.03857	149.73151	91.94504	-962.95184	109.51102	39.74639	-1019.21167	299.50296	42.73795	-962.26611	91.6075	1805.14893	-1005.05847	2845.90234	1034.19275	-3357.39429
91	0.9	225.02364	1744.82727	-1070.47888	190.92773	1721.52441	-930.91492	100.36706	1671.3988	-1113.07434	54.5864	1646.60461	-978.69208	25.31921	1525.67224	-1038.91016	-14.9575	1246.13818	-1027.28613	165.82497	1461.11597	-1050.25171	225.4321	1292.53394	-1045.76074	-25.1506	1346.78052	-974.53406	94.71295	1503.20972	-1219.01855	99.63721	1305.43726	-1306.06824	120.14307	1164.50415	-1327.2561	184.64366	1046.6167	-1340.43787	294.3631	963.90833	-1313.9967	249.88689	941.50574	-1341.06433	296.85962	894.79919	-1345.98315	103.11287	1492.28796	-853.31451	75.76486	1306.02612	-766.40527	81.31522	1158.52466	-750.64355	110.23927	1040.34094	-734.18304	158.79106	914.91162	-757.24829	113.21111	910.24084	-722.87177	152.53094	849.19714	-722.0954	204.30801	988.0661	-1177.35767	235.38736	985.98419	-919.50653	8.79344	1032.63904	-1068.13318	16.64021	1035.82849	-953.0752	182.04323	675.20923	-1229.25122	181.27563	491.00308	-1210.3728	35.64026	382.84274	-1189.86548	-94.39167	203.57004	-1155.77405	-124.76794	196.35355	-1095.32568	-11.90431	78.76192	-1199.1626	199.87288	673.0105	-859.05469	213.78033	466.72635	-916.45459	176.08961	280.26514	-915.99713	149.30196	92.09517	-963.14307	109.13659	39.6657	-1019.56458	299.05069	42.90475	-962.04596	104.52982	1807.47461	-1004.92218	2845.94653	1034.42737	-3357.32739
